<?xml version="1.0" encoding="UTF-8" standalone="no"?>
<svg
   xmlns:dc="http://purl.org/dc/elements/1.1/"
   xmlns:cc="http://creativecommons.org/ns#"
   xmlns:rdf="http://www.w3.org/1999/02/22-rdf-syntax-ns#"
   xmlns:svg="http://www.w3.org/2000/svg"
   xmlns="http://www.w3.org/2000/svg"
   xmlns:sodipodi="http://sodipodi.sourceforge.net/DTD/sodipodi-0.dtd"
   xmlns:inkscape="http://www.inkscape.org/namespaces/inkscape"
   viewBox="0 -256 1850 1850"
   id="svg3025"
   version="1.1"
   inkscape:version="0.48.4 r9939"
   width="100%"
   height="100%"
   sodipodi:docname="calendar.svg">
  <metadata
     id="metadata3035">
    <rdf:RDF>
      <cc:Work
         rdf:about="">
        <dc:format>image/svg+xml</dc:format>
        <dc:type
           rdf:resource="http://purl.org/dc/dcmitype/StillImage" />
      </cc:Work>
    </rdf:RDF>
  </metadata>
  <defs
     id="defs3033" />
  <sodipodi:namedview
     pagecolor="#ffffff"
     bordercolor="#666666"
     borderopacity="1"
     objecttolerance="10"
     gridtolerance="10"
     guidetolerance="10"
     inkscape:pageopacity="0"
     inkscape:pageshadow="2"
     inkscape:window-width="1366"
     inkscape:window-height="712"
     id="namedview3031"
     showgrid="false"
     inkscape:zoom="0.26339286"
     inkscape:cx="656.9159"
     inkscape:cy="1069.4412"
     inkscape:window-x="-2"
     inkscape:window-y="-3"
     inkscape:window-maximized="1"
     inkscape:current-layer="svg3025" />
  <g
     transform="matrix(1,0,0,-1,91.118644,1297.8644)"
     id="g3027">
    <path
       d="M 128,-128 H 416 V 160 H 128 v -288 z m 352,0 H 800 V 160 H 480 V -128 z M 128,224 H 416 V 544 H 128 V 224 z m 352,0 H 800 V 544 H 480 V 224 z M 128,608 H 416 V 896 H 128 V 608 z m 736,-736 h 320 V 160 H 864 V -128 z M 480,608 H 800 V 896 H 480 V 608 z m 768,-736 h 288 V 160 H 1248 V -128 z M 864,224 h 320 V 544 H 864 V 224 z m -352,864 v 288 q 0,13 -9.5,22.5 -9.5,9.5 -22.5,9.5 h -64 q -13,0 -22.5,-9.5 Q 384,1389 384,1376 v -288 q 0,-13 9.5,-22.5 9.5,-9.5 22.5,-9.5 h 64 q 13,0 22.5,9.5 9.5,9.5 9.5,22.5 z m 736,-864 h 288 V 544 H 1248 V 224 z M 864,608 h 320 V 896 H 864 V 608 z m 384,0 h 288 V 896 H 1248 V 608 z m 32,480 v 288 q 0,13 -9.5,22.5 -9.5,9.5 -22.5,9.5 h -64 q -13,0 -22.5,-9.5 -9.5,-9.5 -9.5,-22.5 v -288 q 0,-13 9.5,-22.5 9.5,-9.5 22.5,-9.5 h 64 q 13,0 22.5,9.5 9.5,9.5 9.5,22.5 z m 384,64 V -128 q 0,-52 -38,-90 -38,-38 -90,-38 H 128 q -52,0 -90,38 -38,38 -38,90 v 1280 q 0,52 38,90 38,38 90,38 h 128 v 96 q 0,66 47,113 47,47 113,47 h 64 q 66,0 113,-47 47,-47 47,-113 v -96 h 384 v 96 q 0,66 47,113 47,47 113,47 h 64 q 66,0 113,-47 47,-47 47,-113 v -96 h 128 q 52,0 90,-38 38,-38 38,-90 z"
       id="path3029"
       inkscape:connector-curvature="0"
       style="fill:currentColor" />
  </g>
  <path
     style="fill:#0000ff;fill-opacity:1"
     d="m 174.09924,1798.7079 c -28.27405,-10.8602 -61.52699,-44.5246 -72.22568,-73.1194 l -8.029082,-21.4597 0,-662.2236 0,-662.2236 8.199042,-21.97292 c 10.96814,-29.39397 43.45062,-61.6851 73.27575,-72.84411 19.04498,-7.12564 29.40123,-7.97628 97.10831,-7.97628 l 75.78978,0 0.022,-50.30509 c 0.0122,-27.66779 1.65068,-60.24972 3.6413,-72.40427 11.07787,-67.640577 66.13872,-122.074139 133.30041,-131.781772 57.79732,-8.354093 121.12736,-2.439372 155.22972,14.497702 28.81043,14.308823 59.22207,45.811122 73.67782,76.32009 11.78293,24.868 11.90229,25.72949 13.07541,94.3852 l 1.18393,69.28814 192.86055,0 192.86048,0 1.9562,-61.69492 c 2.2551,-71.12284 7.3733,-93.14645 28.8958,-124.338978 18.006,-26.096144 55.1867,-54.784666 81.3024,-62.732715 25.9257,-7.890229 96.0543,-11.29676 130.8403,-6.355631 38.2092,5.427381 65.4475,18.978125 92.4743,46.004957 38.4923,38.492287 48.8318,72.820597 48.977,162.608807 l 0.075,46.50848 75.2559,0 c 84.2311,0 96.2063,2.34991 127.0457,24.93047 19.9844,14.63258 40.5661,44.28673 47.5615,68.52696 6.4881,22.48217 6.5125,1320.51358 0.027,1343.11898 -6.6591,23.2044 -28.7033,54.6895 -48.3838,69.1054 -35.8841,26.285 25.7295,24.373 -778.31638,24.1542 -724.95417,-0.197 -727.38998,-0.2232 -747.67907,-8.0164 l -0.001,0 z m 333.57574,-259.4467 0,-146.1695 -144.27118,0 -144.27119,0 0,146.1695 0,146.1694 144.27119,0 144.27118,0 0,-146.1694 z m 383.45763,0 0,-146.1695 -161.35594,0 -161.35593,0 0,146.1695 0,146.1694 161.35593,0 161.35594,0 0,-146.1694 z m 386.35019,-0.9492 0.9943,-145.2203 -163.2994,0 -163.29933,0 0,146.2102 0,146.2103 162.30513,-0.9899 162.305,-0.99 0.9943,-145.2203 z m 350.1922,0.9492 0,-146.1695 -144.2712,0 -144.2712,0 0,146.1695 0,146.1694 144.2712,0 144.2712,0 0,-146.1694 z M 507.67498,1170.99 l 0,-161.356 -144.27118,0 -144.27119,0 0,161.356 0,161.3559 144.27119,0 144.27118,0 0,-161.3559 z m 383.45763,0 0,-161.356 -161.35594,0 -161.35593,0 0,161.356 0,161.3559 161.35593,0 161.35594,0 0,-161.3559 z m 387.25419,0 0,-161.356 -163.2542,0 -163.25423,0 0,161.356 0,161.3559 163.25423,0 163.2542,0 0,-161.3559 z m 349.2882,0 0,-161.356 -144.2712,0 -144.2712,0 0,161.356 0,161.3559 144.2712,0 144.2712,0 0,-161.3559 z M 507.67498,802.71879 l 0,-146.16949 -144.27118,0 -144.27119,0 0,146.16949 0,146.16949 144.27119,0 144.27118,0 0,-146.16949 z m 383.45763,0 0,-146.16949 -161.35594,0 -161.35593,0 0,146.16949 0,146.16949 161.35593,0 161.35594,0 0,-146.16949 z m 387.25419,0 0,-146.16949 -163.2542,0 -163.25423,0 0,146.16949 0,146.16949 163.25423,0 163.2542,0 0,-146.16949 z m 349.2882,0 0,-146.16949 -144.2712,0 -144.2712,0 0,146.16949 0,146.16949 144.2712,0 144.2712,0 0,-146.16949 z M 582.73347,496.82736 c 22.93384,-7.99479 23.65338,-13.29178 23.65338,-174.12632 0,-158.01808 -1.12156,-167.38484 -20.94488,-174.92165 -5.45728,-2.07485 -27.8815,-3.77246 -49.83161,-3.77246 -39.04813,0 -40.14877,0.23946 -51.00707,11.09779 l -11.0978,11.09778 0,155.44106 c 0,191.60349 -5.07994,177.61925 64.925,178.7277 17.95956,0.28437 37.89594,-1.3104 44.30298,-3.5439 z m 767.33773,-0.14731 c 22.9772,-8.0099 23.2309,-9.9549 23.2309,-178.13256 l 0,-152.34499 -11.0978,-11.09778 c -10.9816,-10.98164 -11.5556,-11.09779 -54.8391,-11.09779 -40.7602,0 -44.4674,0.62428 -54.3938,9.15965 l -10.6524,9.15965 -1.1685,149.34883 c -1.3011,166.30049 -0.3766,175.03422 19.4397,183.65271 14.7308,6.4067 72.4784,7.27943 89.481,1.35228 z"
     id="path2983"
     inkscape:connector-curvature="0"
     transform="translate(0,-256)" />
</svg>
