<?xml version="1.0" encoding="UTF-8" standalone="no"?>
<svg
   xmlns:dc="http://purl.org/dc/elements/1.1/"
   xmlns:cc="http://creativecommons.org/ns#"
   xmlns:rdf="http://www.w3.org/1999/02/22-rdf-syntax-ns#"
   xmlns:svg="http://www.w3.org/2000/svg"
   xmlns="http://www.w3.org/2000/svg"
   xmlns:sodipodi="http://sodipodi.sourceforge.net/DTD/sodipodi-0.dtd"
   xmlns:inkscape="http://www.inkscape.org/namespaces/inkscape"
   viewBox="0 -256 1792 1792"
   id="svg3025"
   version="1.1"
   inkscape:version="0.48.4 r9939"
   width="100%"
   height="100%"
   sodipodi:docname="cog.svg">
  <metadata
     id="metadata3035">
    <rdf:RDF>
      <cc:Work
         rdf:about="">
        <dc:format>image/svg+xml</dc:format>
        <dc:type
           rdf:resource="http://purl.org/dc/dcmitype/StillImage" />
      </cc:Work>
    </rdf:RDF>
  </metadata>
  <defs
     id="defs3033" />
  <sodipodi:namedview
     pagecolor="#ffffff"
     bordercolor="#666666"
     borderopacity="1"
     objecttolerance="10"
     gridtolerance="10"
     guidetolerance="10"
     inkscape:pageopacity="0"
     inkscape:pageshadow="2"
     inkscape:window-width="1366"
     inkscape:window-height="712"
     id="namedview3031"
     showgrid="false"
     inkscape:zoom="0.5"
     inkscape:cx="391.06766"
     inkscape:cy="1380.5055"
     inkscape:window-x="-2"
     inkscape:window-y="-3"
     inkscape:window-maximized="1"
     inkscape:current-layer="svg3025" />
  <g
     transform="matrix(1,0,0,-1,121.49153,1285.4237)"
     id="g3027">
    <path
       d="m 1024,640 q 0,106 -75,181 -75,75 -181,75 -106,0 -181,-75 -75,-75 -75,-181 0,-106 75,-181 75,-75 181,-75 106,0 181,75 75,75 75,181 z m 512,109 V 527 q 0,-12 -8,-23 -8,-11 -20,-13 l -185,-28 q -19,-54 -39,-91 35,-50 107,-138 10,-12 10,-25 0,-13 -9,-23 -27,-37 -99,-108 -72,-71 -94,-71 -12,0 -26,9 l -138,108 q -44,-23 -91,-38 -16,-136 -29,-186 -7,-28 -36,-28 H 657 q -14,0 -24.5,8.5 Q 622,-111 621,-98 L 593,86 q -49,16 -90,37 L 362,16 Q 352,7 337,7 323,7 312,18 186,132 147,186 q -7,10 -7,23 0,12 8,23 15,21 51,66.5 36,45.5 54,70.5 -27,50 -41,99 L 29,495 Q 16,497 8,507.5 0,518 0,531 v 222 q 0,12 8,23 8,11 19,13 l 186,28 q 14,46 39,92 -40,57 -107,138 -10,12 -10,24 0,10 9,23 26,36 98.5,107.5 72.5,71.5 94.5,71.5 13,0 26,-10 l 138,-107 q 44,23 91,38 16,136 29,186 7,28 36,28 h 222 q 14,0 24.5,-8.5 Q 914,1391 915,1378 l 28,-184 q 49,-16 90,-37 l 142,107 q 9,9 24,9 13,0 25,-10 129,-119 165,-170 7,-8 7,-22 0,-12 -8,-23 -15,-21 -51,-66.5 -36,-45.5 -54,-70.5 26,-50 41,-98 l 183,-28 q 13,-2 21,-12.5 8,-10.5 8,-23.5 z"
       id="path3029"
       inkscape:connector-curvature="0"
       style="fill:currentColor" />
  </g>
  <path
     style="fill:#808080"
     d="m 757.43538,1654.1193 c -5.40142,-6.5083 -16.92489,-54.596 -25.60772,-106.8614 l -15.78697,-95.0282 -47.22319,-18.8817 -47.22318,-18.8818 -75.80026,57.4042 c -41.69014,31.5723 -81.48295,57.4042 -88.42846,57.4042 -22.07417,0 -193.12152,-175.1166 -193.12152,-197.7159 0,-3.5869 25.80021,-40.6096 57.33381,-82.2727 l 57.33381,-75.7511 -21.91894,-51.8251 -21.91893,-51.8251 -94.26234,-13.9801 c -51.84428,-7.6891 -98.53351,-17.5041 -103.75385,-21.8111 -13.61699,-11.2346 -13.4978,-258.95656 0.13003,-270.26665 5.29186,-4.39185 51.83548,-13.95863 103.43027,-21.25949 l 93.80871,-13.2743 22.06289,-49.17403 22.06289,-49.17402 -35.88736,-46.29285 c -19.73805,-25.46107 -45.45743,-58.17647 -57.15417,-72.70088 -11.69675,-14.52442 -21.26682,-34.42634 -21.26682,-44.22647 0,-25.44447 166.28467,-191.3316 191.7901,-191.3316 11.14166,0 46.71712,22.05489 91.12607,56.49331 l 72.84912,56.49331 48.3213,-19.17177 48.3213,-19.17178 13.26499,-91.50111 c 7.29574,-50.32562 16.67503,-97.87285 20.84287,-105.66052 6.93418,-12.95664 18.44127,-14.15941 135.46573,-14.15941 101.00411,0 129.76244,2.25876 136.80544,10.74509 4.9047,5.90979 15.4152,52.44928 23.3565,103.42109 7.9414,50.9718 15.4519,93.46671 16.6901,94.43313 1.2381,0.96641 22.5108,10.89777 47.2724,22.06968 l 45.0213,20.31256 74.4045,-57.15179 c 42.7732,-32.85509 81.7995,-57.15179 91.7992,-57.15179 11.9702,0 40.0666,23.08709 90.0975,74.0339 39.9865,40.71864 79.9964,83.79569 88.9107,95.72676 19.5035,26.10375 18.9543,27.40167 -48.6601,114.99672 -26.7828,34.69729 -48.696,66.40283 -48.696,70.45676 0,6.7345 36.5214,93.64113 41.5199,98.80125 1.1821,1.22033 43.6861,8.57981 94.4533,16.3544 50.7672,7.7746 97.3213,18.29963 103.4535,23.38895 8.9722,7.44629 11.1496,33.50422 11.1496,133.43663 0,148.97282 7.0506,139.78502 -121.2445,157.99732 -47.8913,6.7984 -89.0661,14.8638 -91.4995,17.923 -2.4335,3.0592 -12.2153,25.0827 -21.7374,48.9411 l -17.3129,43.3787 57.5582,74.7364 c 31.657,41.105 57.5581,81.0847 57.5581,88.8439 0,19.4922 -175.4343,193.8656 -195.045,193.8656 -8.4079,0 -48.3906,-25.9368 -88.8506,-57.6374 L 1159.6663,1414 l -47.1412,18.8609 c -53.033,21.2182 -48.5423,12.0605 -68.8303,140.3613 -6.1335,38.7882 -15.2984,75.5205 -20.3666,81.6271 -14.0137,16.8855 -251.81517,16.2325 -265.89282,-0.7297 l 0,-3e-4 z m 248.05532,-520.8899 c 101.2719,-50.3827 153.7481,-154.68921 137.9421,-274.18633 -18.8733,-142.68723 -161.36364,-240.43939 -306.78677,-210.4639 -55.94608,11.53194 -79.55995,23.60397 -121.13708,61.92843 -87.59712,80.7442 -108.64604,197.24647 -55.61219,307.8042 59.832,124.7295 219.29102,177.7531 345.59394,114.9176 l 0,0 z"
     id="path2993"
     inkscape:connector-curvature="0"
     transform="translate(0,-256)" />
  <path
     style="fill:#808080"
     d="m 804.65049,1662.28 c -48.05375,-4.2347 -48.15324,-4.3257 -59.22615,-54.1279 -4.99609,-22.4708 -28.03553,-150.0391 -28.28354,-156.6046 -0.008,-0.2121 -21.59161,-9.0317 -47.96351,-19.5989 l -47.94894,-19.2131 -38.6297,29.2357 c -50.86531,38.4957 -93.64057,68.7915 -110.80859,78.4805 -13.02648,7.3517 -14.35866,7.591 -21.53432,3.8682 -26.82711,-13.9181 -139.12845,-126.7544 -174.58757,-175.4192 l -10.5219,-14.4405 5.90517,-11.0633 c 3.24784,-6.0848 28.83467,-41.8323 56.85962,-79.4389 28.02495,-37.6066 50.95446,-69.7579 50.95446,-71.4474 0,-4.9348 -40.3282,-98.8186 -43.81267,-101.9956 -1.74239,-1.5887 -29.62007,-6.7776 -61.95039,-11.5308 -72.0853,-10.5981 -124.56043,-20.8585 -132.18576,-25.8461 -8.18331,-5.3525 -8.9907,-13.6305 -10.76581,-110.37942 -1.56152,-85.10774 1.14808,-142.93738 7.22975,-154.30108 1.4553,-2.71927 7.44223,-6.2356 13.30429,-7.8141 16.00322,-4.30922 78.32515,-14.94803 134.21928,-22.91225 27.31589,-3.89217 49.97962,-7.38793 50.36382,-7.76834 2.2007,-2.17894 43.58192,-96.34001 43.50668,-98.99742 -0.05,-1.76392 -22.42141,-31.59685 -49.71436,-66.29542 -48.37587,-61.50208 -62.9484,-83.60014 -62.9484,-95.4561 0,-13.03308 33.91259,-53.44065 95.77848,-114.12205 51.64321,-50.65446 83.14726,-75.88525 94.7529,-75.88525 11.19061,0 40.75285,18.61624 94.96423,59.80187 26.34927,20.01814 52.50764,39.84979 58.12972,44.07034 l 10.222,7.67373 47.91232,-18.76631 c 39.8342,-15.60226 48.24583,-19.83817 49.8904,-25.12368 1.08793,-3.49656 6.28968,-35.35116 11.55949,-70.788 16.39896,-110.2753 20.30944,-125.14066 34.25467,-130.21578 21.43789,-7.80193 238.46254,-5.73964 253.69164,2.41073 8.3808,4.48526 14.414,30.5016 36.7979,158.67805 3.9967,22.88629 7.5611,41.93478 7.9208,42.32996 0.3598,0.39519 21.4791,10.27271 46.9317,21.95007 l 46.2777,21.23155 59.4933,-44.95065 c 56.0153,-42.32278 88.982,-64.2285 103.3212,-68.65498 9.7322,-3.00429 30.3863,12.4745 75.8514,56.84514 40.3986,39.42607 101.7074,105.17355 110.4891,118.48843 10.9415,16.58962 6.2435,26.86083 -40.5436,88.64025 -50.8009,67.0793 -62.4712,85.22299 -60.3251,93.78662 5.8999,23.54274 37.9431,93.97213 43.5543,95.73028 2.3816,0.74622 23.0554,4.43943 45.9417,8.20712 91.4404,15.05354 133.0191,23.57352 145.3503,29.7841 11.1202,5.6006 13.0416,24.81714 13.0416,130.43529 0,97.19188 -1.5792,115.4736 -11.1339,128.8919 -10.6766,14.994 -15.7972,16.354 -129.8081,34.4778 -73.9154,11.7499 -68.8412,9.3542 -81.5685,38.5109 -13.7827,31.5745 -27.1581,65.4735 -27.1581,68.83 0,1.449 16.4724,24.069 36.6053,50.2665 50.5993,65.8414 76.1482,104.2426 76.1482,114.4546 0,14.6336 -125.3303,143.6989 -175.3059,180.5303 -13.6355,10.0491 -16.4501,11.1422 -22.6359,8.7903 -17.0268,-6.4736 -73.2083,-46.9142 -146.1559,-105.2062 l -9.8639,-7.8822 -39.5477,15.5582 c -58.8874,23.1666 -58.3372,22.3188 -73.5791,113.3648 -16.1282,96.3407 -20.5065,111.6556 -33.0846,115.7262 -23.695,7.6684 -146.91819,10.7227 -209.63151,5.1961 l 0,0 z m 154.98284,-510.6827 c 90.22187,-25.3628 155.99817,-91.9059 179.04967,-181.13691 3.1834,-12.32262 5.1867,-24.70417 4.4517,-27.51455 -0.7349,-2.81038 -0.2416,-5.78633 1.0964,-6.61321 3.6917,-2.28163 2.7279,-64.25979 -1.3545,-87.09403 -10.261,-57.39403 -39.2965,-107.24156 -84.8051,-145.59165 -31.6458,-26.66794 -60.33334,-41.41753 -104.6997,-53.83089 -16.78356,-4.69592 -27.5068,-5.6239 -64.43061,-5.57577 -39.32718,0.0513 -47.30748,0.85865 -71.14213,7.19754 -36.08133,9.59592 -59.62506,21.72904 -88.93699,45.83318 -49.57817,40.76967 -81.44045,91.78945 -93.87325,150.3154 -5.80423,27.32274 -5.23254,75.72866 1.24311,105.25788 6.10499,27.83893 15.6961,54.78621 19.49963,54.78621 1.45758,0 1.90991,1.1978 1.00517,2.6616 -0.90474,1.4639 2.84354,10.6879 8.32951,20.4977 36.52115,65.306 101.91419,111.2425 179.5789,126.1484 29.19708,5.6038 85.32992,2.9965 114.98819,-5.3409 z"
     id="path3001"
     inkscape:connector-curvature="0"
     transform="translate(0,-256)" />
  <path
     style="fill:#808080"
     d="m 803.03816,1662.2141 c -34.69524,-3.2868 -40.69936,-5.1729 -46.03051,-14.4595 -5.99218,-10.4382 -16.23684,-57.2308 -29.17531,-133.2586 -5.7987,-34.0737 -11.01079,-62.42 -11.5824,-62.9916 -3.76202,-3.762 -94.40934,-38.0084 -96.80935,-36.5744 -1.64296,0.9817 -21.71234,15.8142 -44.59863,32.9612 -54.56964,40.8849 -85.34943,62.5698 -102.7555,72.3932 -13.32153,7.5182 -14.64591,7.763 -21.83072,4.0355 -26.81299,-13.9107 -135.23066,-122.6445 -173.49241,-173.9982 l -11.70055,-15.7041 5.93437,-11.142 c 3.2639,-6.1281 28.8666,-41.9479 56.8949,-79.5995 28.02829,-37.6516 50.96344,-69.7423 50.967,-71.3127 0.003,-1.5703 -9.44875,-25.1277 -21.00514,-52.3498 l -21.0116,-49.4948 -14.55946,-3.2482 c -8.00771,-1.7865 -35.70076,-6.4029 -61.54012,-10.2587 -62.13129,-9.2712 -112.73976,-19.4388 -119.82603,-24.0738 -3.41443,-2.2333 -6.43171,-7.8736 -7.46614,-13.9566 -0.95479,-5.6148 -2.43106,-50.07512 -3.2806,-98.80076 -1.52333,-87.37151 0.9419,-140.20982 7.07644,-151.67232 1.51366,-2.82829 7.26818,-6.43093 12.78781,-8.0058 12.17807,-3.47472 104.52079,-19.12663 151.48707,-25.67678 l 34.06702,-4.75114 21.66127,-48.57354 c 11.9137,-26.71545 21.65108,-49.57995 21.63861,-50.80998 -0.0123,-1.23003 -21.15466,-29.22253 -46.98266,-62.20555 -70.19692,-89.64328 -72.75152,-94.85564 -57.61261,-117.55164 12.94524,-19.40725 48.12816,-57.79919 93.10049,-101.59211 47.4012,-46.15809 78.08011,-70.33521 89.24993,-70.33521 11.46202,0 41.05675,18.83468 100.283,63.82216 29.27456,22.23658 55.5324,42.07577 58.3507,44.0871 4.53393,3.2357 10.69765,1.42366 53.50946,-15.73097 39.13985,-15.68329 48.61241,-20.48583 49.57415,-25.13382 0.65389,-3.16025 5.54191,-34.73968 10.86225,-70.17652 16.6101,-110.63364 20.43422,-125.13212 34.35327,-130.24483 21.23311,-7.79928 238.46334,-5.71015 253.69164,2.43978 8.2598,4.42051 16.8559,40.33907 34.1205,142.5704 3.8649,22.88629 7.6899,45.40213 8.4999,50.0352 1.3959,7.98423 3.9213,9.54582 48.4013,29.9282 l 46.9286,21.50443 59.4822,-44.8713 c 56.0569,-42.28736 89.0244,-64.17298 103.3101,-68.58293 9.7322,-3.00429 30.3863,12.4745 75.8514,56.84514 40.3986,39.42607 101.7074,105.17355 110.4891,118.48843 6.0968,9.24405 5.9784,19.67569 -0.364,32.06508 -2.8044,5.47818 -24.0707,35.32813 -47.2585,66.33322 -23.1878,31.00511 -45.1116,61.41002 -48.7195,67.56653 l -6.5599,11.19361 9.5877,25.59857 c 12.6104,33.66854 29.1321,69.37781 33.8644,73.19299 2.0796,1.67654 12.8416,4.51645 23.9156,6.31093 99.3952,16.10639 157.1196,27.64618 169.5118,33.88744 11.1202,5.6006 13.0416,24.81714 13.0416,130.43529 0,97.19188 -1.5792,115.4736 -11.1339,128.8919 -10.7117,15.0433 -15.0715,16.1813 -136.5196,35.636 -52.0651,8.3402 -60.761,10.8173 -65.9899,18.7975 -7.5598,11.5378 -36.4492,85.003 -34.9563,88.8934 0.8019,2.0897 18.2094,25.8404 38.6833,52.7794 51.826,68.1913 73.0013,100.2197 73.0013,110.4169 0,12.7554 -124.5889,142.4559 -168.5104,175.4239 -20.0133,15.0223 -22.9031,16.3954 -29.3474,13.9453 -13.3168,-5.0631 -58.3146,-36.3444 -107.5855,-74.7907 l -49.0633,-38.2843 -35.5019,14.0494 c -19.5261,7.7272 -39.4607,16.6042 -44.2992,19.7266 -14.953,9.6496 -21.0595,26.7061 -31.3474,87.5577 -17.6326,104.2952 -21.7928,119.1519 -34.5179,123.2701 -23.79006,7.6991 -151.40987,10.7985 -211.24384,5.1302 l 0,0 z m 151.43012,-509.4676 c 75.82432,-19.6935 135.68432,-68.7086 167.90122,-137.4822 11.4732,-24.49205 22.8818,-64.22445 20.7652,-72.31846 -0.7349,-2.81038 -0.2416,-5.78633 1.0964,-6.61321 3.8557,-2.38297 2.8186,-62.11648 -1.4889,-85.75172 -5.0743,-27.84262 -8.0953,-37.97648 -17.7087,-59.40301 -25.9264,-57.785 -83.1934,-110.43002 -144.09788,-132.46786 -34.53298,-12.49549 -65.88001,-17.10491 -104.07517,-15.30367 -61.50283,2.90034 -106.10307,19.22685 -148.05317,54.19675 -47.00468,39.18347 -76.19993,83.17106 -91.10268,137.26166 -5.73556,20.81763 -8.05845,80.81649 -4.05043,104.62073 3.64317,21.63739 15.79073,61.74169 20.08627,66.31349 1.64016,1.7456 3.404,5.5794 3.91966,8.5196 3.40229,19.3988 41.2211,66.8824 74.23147,93.2018 29.93401,23.8665 74.67114,42.7274 119.4651,50.3657 23.2867,3.9709 78.66177,1.2107 103.11161,-5.1396 l 0,0 z"
     id="path3003"
     inkscape:connector-curvature="0"
     transform="translate(0,-256)" />
  <path
     style="fill:#808080"
     d="m 348.07027,1114.8041 c -4.7062,-11.9526 -8.44756,-22.5234 -11.57014,-32.6901 -1.46904,-4.783 -2.75014,-8.7756 -2.84689,-8.8723 -0.0967,-0.097 -41.23444,-6.2203 -91.41711,-13.6079 -50.18267,-7.3876 -92.52763,-13.7442 -94.09992,-14.1259 -9.09485,-2.2077 -18.1233,-9.6337 -22.2393,-18.292 -4.283,-9.0097 -4.07267,-2.4332 -4.08547,-127.74431 -0.0115,-112.30411 0.0103,-114.24219 1.34222,-119.44986 3.14321,-12.28984 12.90347,-23.67075 22.69534,-26.46379 1.35372,-0.38613 44.40846,-7.02958 95.6772,-14.76322 51.26873,-7.73365 93.28351,-14.14493 93.36618,-14.2473 0.0827,-0.10237 1.89381,-5.47144 4.02478,-11.93128 7.17535,-21.75144 17.99588,-47.30407 28.95599,-68.37943 3.1451,-6.04776 5.58729,-11.49712 5.4271,-12.1097 -0.95623,-3.65662 -60.84693,-82.71341 -78.21015,-103.23879 -2.92853,-3.46187 -2.95045,-3.52355 -1.25215,-3.52355 1.48086,0 5.22285,4.44782 26.11489,31.04079 18.52373,23.57842 49.28242,63.09036 57.61102,74.00587 0.28641,0.37537 -9.36439,22.70726 -21.44623,49.62643 l -21.96696,48.94395 -46.27511,6.54944 c -85.89009,12.15628 -123.75216,18.7738 -144.18281,25.20024 -8.13625,2.55924 -8.71822,3.46488 -11.13112,17.32209 -5.19182,29.81633 -7.38716,117.06969 -4.67757,185.90915 1.41065,35.83881 4.25741,61.16207 7.68847,68.39247 1.46867,3.095 7.29633,5.2365 25.7131,9.4486 24.93186,5.7023 56.31941,11.0288 122.59742,20.8049 23.99369,3.5391 45.22982,6.7789 47.19141,7.1996 2.73278,0.5861 3.77496,1.1691 4.45821,2.4941 0.49043,0.9511 5.48803,12.602 11.10576,25.8908 5.61773,13.2888 10.34927,24.388 10.51453,24.6648 0.16526,0.2769 -1.05265,0.5034 -2.70646,0.5034 l -3.00694,0 -3.36929,-8.5572 z"
     id="path3007"
     inkscape:connector-curvature="0"
     transform="translate(0,-256)" />
  <path
     style="fill:#808080"
     d="m 332.45724,1426.8652 c -34.05063,-34.5637 -61.17674,-65.8989 -66.55287,-76.8797 -5.2395,-10.7018 -5.15228,-23.3266 0.23535,-34.0644 2.67492,-5.3313 19.07534,-27.1547 54.67889,-72.7592 27.82033,-35.6349 39.68463,-51.1072 50.5605,-65.9361 l 3.56539,-4.8613 -4.34769,-8.2262 c -4.43063,-8.3831 -12.00359,-24.297 -16.62683,-34.9398 l -2.5664,-5.9079 3.01345,0.2031 3.01345,0.2032 10.37814,24.497 c 9.41922,22.2336 10.3003,24.647 9.53578,26.1195 -0.46329,0.8923 -8.95906,12.369 -18.87949,25.5038 -53.68749,71.0828 -70.95006,94.5166 -84.08972,114.1513 -7.67562,11.4698 -10.29113,16.1088 -10.29113,18.253 0,8.3486 27.96579,43.5003 69.46425,87.3133 5.90614,6.2356 13.85964,14.6319 17.67445,18.6585 l 6.93602,7.321 -3.6646,0 -3.66459,0 -18.37235,-18.6491 0,0 z"
     id="path3009"
     inkscape:connector-curvature="0"
     transform="translate(0,-256)" />
  <path
     style="fill:#808080"
     d="m 769.64673,1667.9936 c -4.65975,-1.0125 -12.00004,-4.6237 -15.85169,-7.7985 -3.7301,-3.0747 -7.58283,-8.6327 -9.07865,-13.0969 -0.7658,-2.2855 -7.30069,-43.2711 -15.61946,-97.9622 l -14.30278,-94.0326 -10.41856,-3.568 c -22.57477,-7.731 -47.42977,-17.9207 -69.37384,-28.4409 l -10.63234,-5.0973 -73.26168,55.5421 c -40.29394,30.5481 -74.46977,56.103 -75.94631,56.7885 -4.49844,2.0888 -8.4717,3.0823 -14.09419,3.5245 -8.94515,0.7034 -16.97379,-2.0449 -24.49106,-8.3835 -8.94322,-7.541 -52.58644,-48.1401 -76.85292,-71.4924 l -8.72498,-8.3963 3.71426,-0.033 c 3.64269,-0.032 3.78496,0.04 7.38268,3.7319 6.65901,6.8338 36.48232,35.3377 46.33837,44.2882 24.85486,22.5714 42.82259,35.7862 48.71196,35.8266 4.60324,0.032 17.18302,-7.0194 40.41724,-22.6535 19.51839,-13.1338 39.42958,-27.708 85.08471,-62.2784 l 38.35739,-29.0445 4.93193,1.5399 c 3.85998,1.2052 89.05713,34.9734 89.63906,35.5288 0.0781,0.074 3.7896,22.0182 8.24783,48.7639 9.53565,57.2058 13.43783,78.7193 18.49837,101.985 5.48606,25.222 10.19676,42.0948 13.63291,48.8302 2.26208,4.434 7.58609,6.5901 21.89609,8.8674 58.80126,9.3576 193.99087,8.5496 235.42593,-1.4071 7.7416,-1.8603 9.7099,-3.2437 12.3857,-8.7054 5.7177,-11.6707 13.5158,-46.6845 20.9865,-94.2302 3.8539,-24.5271 8.5044,-52.4272 10.1244,-60.7392 1.7106,-8.777 5.4745,-23.3336 5.7893,-22.3894 0.5321,1.5964 -9.3516,75.5781 -13.8853,103.9343 -4.1685,26.0719 -9.8924,54.7073 -13.0325,65.1982 -2.1806,7.2851 -4.3881,11.4271 -8.4717,15.8952 -4.2781,4.6809 -9.0644,7.4638 -15.7998,9.1865 -5.1027,1.305 -7.6009,1.3313 -121.37969,1.2791 -94.96926,-0.044 -116.93212,-0.219 -120.34718,-0.9611 l 0,0 z"
     id="path3011"
     inkscape:connector-curvature="0"
     transform="translate(0,-256)" />
  <path
     style="fill:#808080"
     d="m 1312.798,1533.0454 c -10.9727,-2.4065 -12.0231,-3.1523 -85.7697,-60.9027 -37.5758,-29.4253 -68.8486,-53.8309 -69.495,-54.2345 -0.9524,-0.5948 -3.3324,0.3117 -12.554,4.7819 -16.3253,7.9135 -30.5528,14.2467 -43.2586,19.2559 -10.4518,4.1206 -25.6422,9.6087 -26.5956,9.6087 -1.2099,0 5.1924,-4.2714 10.3395,-6.8982 8.4468,-4.3107 73.7763,-30.2173 74.7236,-29.6318 0.4375,0.2703 16.9835,13.1946 36.769,28.7206 65.9414,51.7452 92.4503,70.6756 114.3805,81.6807 8.831,4.4316 10.9999,4.7898 15.4135,2.5456 14.4649,-7.355 49.9415,-38.3191 96.0118,-83.7996 37.8707,-37.3857 70.7326,-72.8971 84.486,-91.2979 l 3.5389,-4.7347 0.1986,4.7931 c 0.1953,4.7163 0.153,4.8538 -2.6457,8.5861 -13.7621,18.3531 -38.9164,45.817 -78.3738,85.5696 -44.8253,45.1608 -72.0808,69.0018 -91.8297,80.3256 -10.9093,6.2553 -16.664,7.5343 -25.3393,5.6316 z"
     id="path3013"
     inkscape:connector-curvature="0"
     transform="translate(0,-256)" />
  <path
     style="fill:#808080"
     d="m 1511.1577,1352.792 c -0.1812,-4.4772 -0.042,-5.0322 2.057,-8.2215 1.2382,-1.8812 2.7498,-4.6841 3.3592,-6.2286 0.9904,-2.5107 1.0053,-3.1509 0.1411,-6.0404 -1.8519,-6.1912 -12.701,-24.3007 -26.9572,-44.9972 -11.2924,-16.3938 -23.1738,-32.29 -55.78,-74.6281 l -31.0645,-40.3364 0.765,-2.8446 c 0.9068,-3.3714 12.7387,-33.0892 22.2269,-55.8266 8.9238,-21.3847 14.1373,-32.2735 15.9054,-33.2198 0.7806,-0.4178 1.4194,-0.4974 1.4194,-0.177 0,0.9682 -8.9037,24.5661 -13.6805,36.258 -6.155,15.0655 -12.0562,28.1208 -18.7966,41.5839 l -5.704,11.3931 10.8884,15.0151 c 20.1039,27.7236 45.0468,59.8724 79.2203,102.1069 10.3834,12.8327 20.0212,25.2109 21.4174,27.507 6.2014,10.1985 7.0415,23.1801 2.1239,32.8182 -0.8448,1.6558 -7.0163,10.6397 -7.3086,10.6394 -0.021,-10e-5 -0.1258,-2.1607 -0.2326,-4.8014 z"
     id="path3015"
     inkscape:connector-curvature="0"
     transform="translate(0,-256)" />
  <path
     style="fill:#808080"
     d="m 1450.2771,1076.683 c 0.3691,-0.1446 4.7484,-1.1559 9.7317,-2.2474 19.5168,-4.2748 53.5447,-9.9089 91.6122,-15.1684 50.3037,-6.9502 64.4093,-10.1115 78.6402,-17.6244 3.8291,-2.0215 10.3895,-8.2182 12.9886,-12.2686 2.7615,-4.3034 5.7567,-12.0402 7.0623,-18.2424 3.0102,-14.30044 3.1588,-18.27646 3.4623,-92.63973 l 0.2897,-70.97434 1.6488,0 1.6487,0 -0.1848,86.41084 c -0.1841,86.07203 -0.1904,86.42713 -1.6087,90.55473 -4.422,12.8688 -13.5685,22.4288 -23.8719,24.9509 -3.2723,0.801 -179.9226,27.6579 -181.3052,27.5646 -0.4318,-0.029 -0.4831,-0.1713 -0.1139,-0.3158 z"
     id="path3017"
     inkscape:connector-curvature="0"
     transform="translate(0,-256)" />
  <path
     style="fill:#808080"
     d="m 1653.738,842.98745 c -0.2353,-2.49165 -0.4305,-7.85248 -0.4337,-11.91295 -0.01,-9.56375 -1.1488,-27.52439 -2.3491,-36.974 -2.0619,-16.2313 -4.6147,-22.50823 -10.3325,-25.40564 -10.176,-5.15659 -45.784,-13.00146 -98.7334,-21.75216 -17.903,-2.95874 -42.8445,-7.05506 -55.4257,-9.10294 -27.7967,-4.52456 -38.7849,-6.67176 -40.7579,-7.96448 -2.1142,-1.38527 -7.171,-11.44505 -16.0981,-32.02449 -16.4745,-37.97816 -26.8885,-65.12951 -25.3464,-66.08261 0.495,-0.30588 12.9595,25.20091 19.1739,39.23652 5.1121,11.54595 13.9765,34.4876 17.7639,45.97392 1.9474,5.90614 3.7649,10.98516 4.0388,11.28669 0.274,0.30154 41.8269,6.87579 92.3399,14.60944 50.513,7.73365 93.0572,14.38848 94.5428,14.78848 10.9336,2.94413 19.9069,12.42556 23.7436,25.08831 0.8252,2.72326 1.068,9.14311 1.2881,34.06097 l 0.2713,30.70522 -1.6288,0 c -1.5212,0 -1.6571,-0.29936 -2.0567,-4.53028 l 0,0 z"
     id="path3019"
     inkscape:connector-curvature="0"
     transform="translate(0,-256)" />
  <path
     style="fill:#808080"
     d="m 1406.4959,625.9647 c 1.5276,-4.37617 22.2757,-33.70748 43.3884,-61.33762 55.4384,-72.55215 61.8032,-82.41169 61.8032,-95.73755 0,-9.88062 -6.1479,-18.86313 -33.4627,-48.8912 -30.0968,-33.08646 -86.2362,-90.62646 -106.8174,-109.48228 -17.8408,-16.3452 -31.306,-26.80742 -40.5054,-31.47202 -7.2541,-3.67827 -10.4348,-3.66252 -19.0004,0.0941 -8.1431,3.57127 -19.598,10.15057 -33.2688,19.10846 -20.9816,13.74831 -32.966,22.58206 -87.957,64.83385 -19.1209,14.69134 -35.1694,26.71153 -35.6635,26.71153 -0.494,0 -2.8198,-0.8869 -5.1683,-1.97087 -2.3485,-1.08398 -17.7099,-8.05196 -34.1363,-15.48439 -32.1461,-14.54505 -51.176,-23.54034 -50.7345,-23.98183 0.4251,-0.42513 22.5961,7.38506 36.5485,12.875 16.2293,6.38584 31.8188,13.20468 43.0091,18.81215 4.9248,2.46778 9.4819,4.34886 10.127,4.18017 0.6451,-0.16869 32.9377,-24.27855 71.7614,-53.57747 38.8236,-29.29892 72.3846,-54.54382 74.5798,-56.0998 5.1413,-3.64403 9.4828,-4.98191 17.4725,-5.38422 7.1086,-0.35795 11.5467,0.56316 17.681,3.66961 6.1775,3.12836 5.5865,2.61812 35.4972,30.64656 66.0628,61.90553 109.935,107.51707 134.1974,139.51783 7.4596,9.8388 8.8206,12.25301 10.1958,18.08605 2.3364,9.90987 0.6036,19.96901 -5.0044,29.05156 -3.381,5.47568 -22.0371,30.00463 -53.2071,69.95626 -17.6362,22.60489 -36.1654,46.61536 -41.176,53.3566 -9.4468,12.70959 -10.814,14.3944 -10.1595,12.51956 z"
     id="path3021"
     inkscape:connector-curvature="0"
     transform="translate(0,-256)" />
  <path
     style="fill:#808080"
     d="m 313.84406,395.65025 0,-4.37104 28.17622,-28.51365 c 45.48577,-46.03048 70.4482,-68.55584 91.77209,-82.81237 12.3291,-8.24288 18.66616,-10.9577 25.59485,-10.96491 7.07053,-0.007 14.58393,2.7711 22.64806,8.3753 2.25199,1.56503 34.41696,26.34109 71.47771,55.05792 37.06077,28.71684 67.73427,52.48195 68.16336,52.81136 0.50474,0.38749 4.53262,-1.27578 11.40959,-4.71148 20.2814,-10.13249 46.66584,-21.15821 68.01294,-28.42174 6.45984,-2.19802 11.98687,-4.23582 12.28228,-4.52844 0.29541,-0.29262 2.33363,-14.99865 4.52937,-32.68005 10.72544,-86.36751 21.45522,-147.71842 28.39398,-162.35153 4.33117,-9.13398 12.65818,-15.7094 22.44599,-17.72447 2.49018,-0.51266 38.71311,-0.72982 120.8074,-0.72425 97.6374,0.007 117.8122,0.16299 120.6066,0.93468 14.291,3.94653 23.0587,13.03098 25.5449,26.46745 0.5232,2.82743 6.9986,45.00723 14.39,93.73288 7.3914,48.72565 13.6178,89.49815 13.8365,90.60555 0.317,1.60486 0.2264,1.84964 -0.4466,1.20621 -1.2525,-1.1974 -3.7733,-14.89433 -13.7936,-74.94899 -12.5746,-75.36422 -19.5471,-108.21797 -25.4435,-119.8885 -1.8645,-3.6903 -4.9252,-5.55033 -12.1915,-7.40893 -14.67698,-3.75413 -35.53507,-4.68341 -114.98537,-5.12288 -117.11719,-0.64783 -137.23873,0.9081 -144.7053,11.18956 -2.86202,3.941 -4.2222,8.23438 -7.9907,25.22246 -6.23209,28.09376 -11.55151,60.25295 -21.47297,129.81751 -3.18512,22.33259 -6.03579,41.21767 -6.33482,41.96683 -0.29903,0.74917 -1.77848,2.21783 -3.28767,3.2637 -3.78488,2.62293 -89.62682,36.65004 -92.45893,36.65004 -1.90341,0 -6.8295,-3.569 -33.96399,-24.60723 -57.22067,-44.36502 -64.09324,-49.51388 -83.41639,-62.49478 -24.16369,-16.23268 -39.83979,-24.30925 -47.1827,-24.30925 -9.23682,0 -31.7248,16.5557 -70.60451,51.97919 -11.77729,10.73035 -51.84364,50.40778 -64.33226,63.70781 l -7.48103,7.96708 0,-4.37104 z"
     id="path3023"
     inkscape:connector-curvature="0"
     transform="translate(0,-256)" />
  <path
     style="fill:#808080"
     d="m 281.93795,512.85924 c -20.87086,-25.74445 -22.46766,-28.16269 -24.26372,-36.74572 -2.07732,-9.9271 1.26858,-19.35607 11.81679,-33.30057 9.27108,-12.25616 34.08152,-40.85125 41.89592,-48.28683 l 2.43074,-2.3129 -0.0258,3.99078 c -0.0241,3.73104 -0.20977,4.19449 -2.8524,7.12043 -24.79083,27.44864 -41.57266,49.18226 -45.71314,59.20168 -2.20781,5.34261 -0.9727,12.33033 4.22651,23.91173 4.1921,9.33805 9.41278,17.60512 18.27331,28.93625 4.01458,5.13398 7.29924,9.48212 7.29924,9.66254 0,0.18042 -0.67954,0.30839 -1.51009,0.28438 -1.12652,-0.0326 -4.06727,-3.19798 -11.57738,-12.46177 z"
     id="path3025"
     inkscape:connector-curvature="0"
     transform="translate(0,-256)" />
  <path
     style="fill:#808080"
     d=""
     id="path3027"
     inkscape:connector-curvature="0"
     transform="translate(0,-256)" />
  <path
     style="fill:#808080"
     d="m 634.73621,937.97251 c -2.25231,-14.60457 -2.45465,-17.73192 -2.4003,-37.09818 0.0833,-29.66922 1.49916,-43.61302 6.40618,-63.08831 14.34271,-56.92422 48.26681,-106.38609 101.32022,-147.72644 25.67857,-20.00929 47.777,-29.95352 86.18008,-38.78079 21.35516,-4.90866 33.28818,-6.47948 48.20373,-6.34536 l 11.52881,0.10367 -10.40285,0.49658 c -68.02108,3.24697 -126.562,30.75132 -174.24024,81.86348 -37.67015,40.38326 -58.72034,85.0125 -66.1539,140.25513 -2.02012,15.01254 -2.19384,50.04823 -0.32231,65.00068 1.26138,10.07765 1.17916,13.73991 -0.11942,5.31954 z"
     id="path3030"
     inkscape:connector-curvature="0"
     transform="translate(0,-256)" />
  <path
     style="fill:#808080"
     d="m 277.57717,1310.7805 c 0.005,-1.5068 32.60685,-45.8067 73.47105,-99.8339 11.72638,-15.5036 22.82589,-30.4108 24.66559,-33.1271 l 3.34491,-4.9387 -20.95864,-49.5518 c -11.52726,-27.2535 -21.49873,-50.4399 -22.15882,-51.5253 -1.4975,-2.4624 0.0696,-2.1681 -54.33888,-10.2077 -78.95274,-11.6665 -115.15858,-18.2402 -136.72517,-24.8245 -6.28866,-1.9199 -7.95969,-2.9941 -9.07781,-5.8356 -3.23526,-8.2221 -5.54112,-28.8926 -7.32137,-65.63096 -1.03289,-21.31556 -1.02953,-109.17909 0.005,-131.21026 1.68734,-35.93269 4.23217,-59.05416 7.40535,-67.2827 1.30282,-3.3784 5.92277,-5.27919 22.40527,-9.21824 22.84675,-5.46001 58.26812,-11.29411 129.68464,-21.3598 l 46.30951,-6.52702 2.03333,-4.01512 c 1.11834,-2.20831 2.84631,-5.90273 3.83995,-8.20981 l 1.8066,-4.1947 185.01054,0 185.01054,0 -9.33455,9.57977 c -31.93585,32.77484 -54.98229,73.99727 -65.02475,116.30774 -4.53289,19.09775 -5.90171,33.34814 -5.95878,62.0351 -0.0501,25.19565 1.31368,36.36916 7.41361,60.73928 4.76005,19.01709 14.59207,46.15632 16.58503,45.77952 0.42077,-0.08 0.7841,0.8845 0.83209,2.2079 0.0896,2.4699 6.96426,16.8165 12.70345,26.5105 4.94822,8.3579 13.09441,20.0923 19.56882,28.1884 7.48477,9.3595 28.04012,30.0491 36.74019,36.9801 40.84977,32.5435 87.29544,51.4653 139.99089,57.0318 12.56176,1.3269 42.5281,0.9786 57.27955,-0.6658 47.57288,-5.3032 93.26516,-24.743 132.10526,-56.2042 10.0597,-8.1486 27.5601,-25.776 35.5417,-35.7996 21.1864,-26.6072 35.8093,-54.8339 45.1998,-87.24982 3.6835,-12.71528 7.1665,-29.4194 7.4486,-35.72223 0.1194,-2.66707 0.4988,-5.38524 0.8431,-6.04037 0.6687,-1.2722 1.8037,-13.96476 2.4772,-27.70165 0.4673,-9.53109 -0.5736,-32.4204 -2.0513,-45.10814 -6.4349,-55.25112 -30.2622,-104.6771 -69.5702,-144.31244 l -6.5017,-6.55586 91.5702,0 91.5703,0 0,298.99831 0,298.9983 -486.92091,0 c -267.80651,0 -486.92016,-0.2265 -486.91922,-0.5034 l 0,0 z"
     id="path3032"
     inkscape:connector-curvature="0"
     transform="translate(0,-256)" />
  <path
     style="fill:#808080"
     d="m 747.708,1116.7637 c -23.38271,-15.0625 -46.09756,-36.2189 -63.17417,-58.8398 -5.43317,-7.1971 -13.28342,-19.0601 -12.87993,-19.4636 0.17843,-0.1784 2.11381,2.3141 4.30086,5.539 17.68417,26.0761 44.58622,52.9384 71.09167,70.9867 7.56359,5.1503 8.26696,5.6941 7.34912,5.6828 -0.35068,-0 -3.36007,-1.7617 -6.68755,-3.9051 l 0,0 z"
     id="path3034"
     inkscape:connector-curvature="0"
     transform="translate(0,-256)" />
  <path
     style="fill:#808080"
     d="m 382.18781,1065.9778 0,-298.99834 142.94818,0 142.94818,0 -2.56399,4.19471 c -11.3176,18.51559 -21.66276,43.39182 -27.16935,65.3321 -5.085,20.26051 -6.62222,35.22575 -6.64633,64.70363 -0.0172,21.00625 0.67924,28.70581 4.23523,46.82476 4.28293,21.82295 16.35399,58.34544 19.70934,59.63294 0.63182,0.2425 1.0424,1.227 1.04615,2.5086 0.0152,5.1936 15.17184,32.226 26.39519,47.0766 14.59674,19.3143 34.4648,38.9233 53.13018,52.4376 36.20537,26.2136 76.61476,42.0799 123.15643,48.3558 11.21634,1.5124 46.6466,1.7124 59.39697,0.3353 32.02771,-3.4593 59.54123,-11.4195 87.39861,-25.2859 25.8473,-12.8659 46.6927,-27.8863 66.981,-48.2637 25.3643,-25.4759 44.0475,-54.522 56.3345,-87.58153 7.0508,-18.97101 14.1179,-47.82475 13.7018,-55.94223 -0.08,-1.56711 0.1752,-3.45333 0.5678,-4.19159 2.2775,-4.28228 3.298,-43.88773 1.6169,-62.75273 -2.3166,-25.99706 -7.1324,-47.70709 -15.3346,-69.12868 -3.8695,-10.10616 -10.8148,-24.97955 -15.5916,-33.38982 l -2.7637,-4.86586 261.1909,0 c 185.7782,0 261.8924,0.21019 263.6206,0.72798 10.2489,3.07064 13.0901,11.44504 15.5779,45.9171 0.4071,5.64069 0.9211,42.67654 1.1691,84.2296 l 0.4424,74.16232 0.3356,-61.93851 c 0.278,-51.30021 0.4927,-62.03558 1.2505,-62.5037 0.7408,-0.45762 0.7477,-0.62091 0.036,-0.85798 -0.647,-0.21564 -1.0152,-3.199 -1.3974,-11.32304 -2.4296,-51.64031 -4.7512,-63.12496 -13.5701,-67.12977 l -2.7625,-1.25452 4.4706,-0.0147 c 4.1798,-0.0138 4.584,0.12008 6.2144,2.0576 4.5106,5.36051 6.9719,11.34965 7.8366,19.06896 0.7776,6.94178 0.7413,220.70574 -0.039,229.48164 -0.5173,5.8172 -0.9452,7.3715 -3.3847,12.2946 -3.6212,7.308 -9.9304,14.1286 -15.6939,16.9659 -3.7889,1.8653 -7.7204,2.5896 -47.4063,8.733 -54.9177,8.5014 -123.6203,18.7919 -124.869,18.7034 -4.4572,-0.3162 42.5781,-8.2951 86.2925,-14.6384 32.6011,-4.7307 49.6753,-7.6442 59.5054,-10.154 21.4584,-5.4789 32.3857,-14.4368 38.1915,-31.3089 2.3499,-6.829 3.973,-17.9782 4.2758,-29.37153 0.2749,-10.34407 0.2647,-10.45139 -0.2593,-2.71581 -2.1168,31.24864 -7.6359,44.98284 -21.7494,54.12404 -10.8203,7.0082 -27.3982,10.9664 -72.9169,17.41 -50.1864,7.1043 -74.9337,11.1714 -97.7863,16.0707 -6.7179,1.4403 -13.3623,3.0982 -14.7653,3.6843 -5.7391,2.3974 -7.4533,5.4036 -19.5101,34.2164 -13.2879,31.7549 -23.6456,58.2397 -23.6456,60.462 0,0.4565 13.8077,18.7512 30.6839,40.655 32.3249,41.9549 44.1647,57.7905 56.3717,75.396 16.005,23.0833 27.0403,42.3607 27.0403,47.2367 0,3.1359 -4.9086,10.9832 -13.9915,22.3682 l -5.7777,7.2421 -557.23897,0 -557.23902,0 0,-298.9983 z"
     id="path3036"
     inkscape:connector-curvature="0"
     transform="translate(0,-256)" />
  <path
     style="fill:#808080"
     d="m 863.73951,1157.9 c -13.63343,-1.6332 -38.54121,-6.2551 -36.81321,-6.8311 0.39176,-0.1306 4.46129,0.5216 9.04339,1.4494 19.03848,3.8548 28.55587,4.685 53.60918,4.6759 20.14018,-0.01 24.5965,-0.2029 34.22876,-1.502 54.67331,-7.3739 98.50047,-28.0891 139.59967,-65.9828 23.3821,-21.5584 42.3515,-46.6045 56.6551,-74.8041 5.0043,-9.866 6.7443,-12.2306 3.3474,-4.5489 -26.7683,60.534 -76.8847,107.7449 -140.28474,132.152 -18.48844,7.1175 -40.83451,12.6528 -59.69986,14.7882 -13.36634,1.513 -49.07876,1.874 -59.68569,0.6034 z"
     id="path3038"
     inkscape:connector-curvature="0"
     transform="translate(0,-256)" />
  <path
     style="fill:#808080"
     d="m 1136.6232,831.0745 c -10.0581,-38.28923 -32.0343,-75.94394 -62.8131,-107.62547 -33.7672,-34.75779 -70.8702,-57.2253 -114.2688,-69.19492 -18.1078,-4.99425 -35.79726,-7.75156 -56.20381,-8.76065 l -10.73844,-0.531 14.76535,0.17636 c 12.53982,0.14978 16.33334,0.45146 25.16821,2.00149 53.08284,9.31311 100.42569,33.19624 137.87219,69.55259 29.5207,28.66132 50.6678,62.32236 63.0042,100.2874 3.3588,10.33675 5.2938,17.64544 5.0276,18.98994 -0.1247,0.62955 -0.9407,-1.57354 -1.8134,-4.89574 l 0,0 z"
     id="path3040"
     inkscape:connector-curvature="0"
     transform="translate(0,-256)" />
  <path
     style="fill:#808080"
     d=""
     id="path3042"
     inkscape:connector-curvature="0"
     transform="translate(0,-256)" />
  <path
     style="fill:#808080"
     d="m 1140.2847,846.48049 c -0.2567,-1.71198 -0.3157,-3.26371 -0.1312,-3.44827 0.1846,-0.18457 0.5456,1.06514 0.8024,2.77712 0.2567,1.71199 0.3157,3.26371 0.1312,3.44828 -0.1846,0.18456 -0.5456,-1.06514 -0.8024,-2.77713 l 0,0 z"
     id="path3044"
     inkscape:connector-curvature="0"
     transform="translate(0,-256)" />
  <path
     style="fill:#808080"
     d=""
     id="path3046"
     inkscape:connector-curvature="0"
     transform="translate(0,-256)" />
  <path
     style="fill:#808080"
     d="m 1123.9987,1006.6357 c -0.01,-0.2076 0.5352,-1.5667 1.2019,-3.0202 5.2969,-11.54753 11.4465,-30.76347 14.5903,-45.59055 0.6254,-2.9499 1.1886,-5.09638 1.2515,-4.76996 0.242,1.25661 -3.505,17.217 -6.1716,26.288 -3.2462,11.04272 -8.8822,26.29581 -9.7162,26.29581 -0.2539,0 -0.6156,0.2642 -0.8037,0.5872 -0.1881,0.323 -0.3466,0.4174 -0.3522,0.2097 l 0,0 z"
     id="path3048"
     inkscape:connector-curvature="0"
     transform="translate(0,-256)" />
  <path
     style="fill:#808080"
     d="m 1145.5365,902.64913 c -0.058,-18.25018 -1.1577,-32.22752 -3.7224,-47.31468 -0.7763,-4.56672 -0.8887,-5.81869 -0.5638,-6.28254 0.3361,-0.4798 0.5325,0.24031 1.144,4.19316 2.6404,17.07032 4.0814,40.1173 3.4665,55.44443 -0.2761,6.88332 -0.2836,6.74293 -0.3243,-6.04037 z"
     id="path3050"
     inkscape:connector-curvature="0"
     transform="translate(0,-256)" />
  <path
     style="fill:#808080"
     d=""
     id="path3052"
     inkscape:connector-curvature="0"
     transform="translate(0,-256)" />
  <path
     style="fill:#808080"
     d="m 1138.82,840.48366 c -1.0799,-4.89862 -1.0964,-4.98382 -0.8762,-4.51628 0.1432,0.30419 0.3283,0.33046 0.6203,0.0881 0.32,-0.26557 0.5833,0.40984 1.1392,2.92229 0.6605,2.98535 0.6891,4.77778 0.076,4.77778 -0.1311,0 -0.5629,-1.47234 -0.9595,-3.27186 z"
     id="path3054"
     inkscape:connector-curvature="0"
     transform="translate(0,-256)" />
  <path
     style="fill:#808080"
     d="m 356.48505,1123.4941 c 0,-0.072 0.22652,-0.2188 0.50337,-0.325 0.27685,-0.1063 0.50336,-0.047 0.50336,0.1318 0,0.1788 -0.22651,0.3251 -0.50336,0.3251 -0.27685,0 -0.50337,-0.059 -0.50337,-0.1319 z"
     id="path3056"
     inkscape:connector-curvature="0"
     transform="translate(0,-256)" />
  <path
     style="fill:#808080"
     d=""
     id="path3058"
     inkscape:connector-curvature="0"
     transform="translate(0,-256)" />
  <path
     style="fill:#808080"
     d="m 350.70275,1121.0653 c -9.13945,-24.0646 -11.06412,-29.4716 -15.37667,-43.1983 -0.80366,-2.558 -1.61923,-4.7063 -1.81238,-4.7739 -0.19315,-0.068 -19.22734,-2.9269 -42.2982,-6.3538 -23.07085,-3.4268 -58.63353,-8.7088 -79.02817,-11.7377 -43.9727,-6.5305 -63.10161,-9.4595 -64.93398,-9.9428 -2.38444,-0.6288 -5.97444,-2.3392 -8.72497,-4.1568 -5.55364,-3.6699 -9.58395,-8.2069 -12.58577,-14.1679 -1.9603,-3.8928 -2.55415,-6.0524 -3.02352,-10.9958 -0.33667,-3.5458 -0.94987,-32.11734 -0.98488,-45.89006 l -0.0168,-6.62763 2.82376,0 2.82377,0 0.19162,2.43293 c 0.1054,1.33811 0.35099,5.83064 0.54576,9.98339 1.30038,27.72567 4.10684,50.23357 7.04215,56.47817 1.42044,3.0218 5.01071,4.612 17.61373,7.8014 23.72303,6.0033 52.60966,11.0887 122.98864,21.6515 59.95538,8.9984 57.82768,8.6262 59.00331,10.3208 0.875,1.2612 21.97659,50.7363 21.7403,50.9726 -0.10644,0.1064 -1.30022,0.2645 -2.65285,0.3513 l -2.45931,0.1578 -0.87549,-2.3052 z"
     id="path3060"
     inkscape:connector-curvature="0"
     transform="translate(0,-256)" />
  <path
     style="fill:#7d7d7d;fill-opacity:0.67005694"
     d="m 316.63326,1256.2624 c 2.44115,-3.276 14.26373,-18.9432 26.2724,-34.816 29.92838,-39.5585 30.88092,-40.8287 33.4563,-44.6131 1.24912,-1.8355 2.27112,-3.5903 2.27112,-3.8996 0,-0.5168 -39.58486,-94.3966 -42.1084,-99.8646 -0.60962,-1.3209 -1.42585,-2.5716 -1.81384,-2.7792 -1.43767,-0.7695 -7.8599,-1.8048 -49.03234,-7.9044 -47.51819,-7.0398 -61.35079,-9.1603 -75.37714,-11.5553 -29.59944,-5.0539 -53.39568,-10.0867 -65.39704,-13.831 -5.69796,-1.7777 -7.68764,-2.7327 -8.49838,-4.0788 -2.40078,-3.9862 -4.32856,-14.8993 -5.93331,-33.58814 -0.7466,-8.69487 -2.17507,-31.55224 -2.17815,-34.85323 l -0.001,-1.25842 255.70898,0 c 225.8649,0 255.70899,0.0581 255.70899,0.49807 0,0.77373 4.16286,14.93516 5.82164,19.80429 3.08361,9.05159 7.95101,21.43073 9.13989,23.24523 0.28054,0.4281 0.87988,0.919 1.33183,1.0909 0.72495,0.2756 0.81592,0.5012 0.77203,1.9145 -0.0669,2.1549 0.74095,4.1498 5.40529,13.3473 8.43175,16.6265 17.35727,30.172 29.35006,44.542 5.73912,6.8767 18.26131,19.8399 25.36177,26.2549 15.34005,13.8591 34.68655,27.0589 54.11701,36.9231 l 6.61018,3.3557 0.006,64.0112 0.006,64.0111 -232.71914,0 -232.71912,0 4.43846,-5.9565 0,0 z"
     id="path3062"
     inkscape:connector-curvature="0"
     transform="translate(0,-256)" />
</svg>
